<?xml version="1.0" encoding="utf-8"?>
<!-- Generator: Adobe Illustrator 23.0.1, SVG Export Plug-In . SVG Version: 6.00 Build 0)  -->
<svg version="1.1" id="Calque_1" xmlns="http://www.w3.org/2000/svg" xmlns:xlink="http://www.w3.org/1999/xlink" x="0px" y="0px"
	 viewBox="0 0 2000 2000" style="enable-background:new 0 0 2000 2000;" xml:space="preserve">
<path d="M1151.3,1268.3c-17.8,37.9-29,53.5-33.5,71.4c-11.2,53.5-17.8,109.3-29,165c-13.4,66.9-42.4,133.8,42.4,180.6
	c15.6,8.9,17.8,69.1,2.2,89.2c-17.8,24.5-58,44.6-89.2,46.8c-91.4,6.7-182.9-71.4-189.6-160.6c-6.7-104.8-2.2-209.6-2.2-321.1
	c-116,78.1-225.2,147.2-327.8,223c-20.1,13.4-22.3,60.2-22.3,91.4c2.2,62.4-4.5,124.9-75.8,138.3c-73.6,13.4-91.4-49.1-116-107
	c-46.8-109.3-15.6-194,66.9-267.6c37.9-33.5,69.1-73.6,109.3-102.6c75.8-51.3,91.4-113.7,64.7-200.7c-15.6-53.5-37.9-75.8-89.2-91.4
	C212.5,953.9,5.1,681.8,14,441c2.2-40.1,11.2-82.5,26.8-122.7c40.1-102.6,133.8-156.1,223-136c95.9,22.3,171.7,122.7,156.1,227.5
	c-4.5,33.5-42.4,62.4-64.7,93.7c-24.5-22.3-49.1-42.4-71.4-66.9c-20.1-20.1-37.9-40.1-55.8-60.2c-8.9,26.8-29,53.5-29,80.3
	c2.2,162.8,189.6,356.8,350.1,363.5c31.2,2.2,69.1-6.7,93.7-24.5c243.1-162.8,492.8-151.6,744.8-26.8c116,58,231.9,78.1,359,71.4
	c140.5-6.7,211.9,55.8,225.2,200.7c4.5,44.6,26.8,107,6.7,131.6c-31.2,40.1-91.4,71.4-142.7,82.5c-87,15.6-131.6,58-95.9,142.7
	c29,73.6,40.1,160.6,127.1,205.2c60.2,31.2,46.8,109.3-17.8,138.3c-66.9,29-151.6,13.4-194-49.1
	c-69.1-102.6-133.8-207.4-202.9-316.7c-44.6,20.1-66.9,60.2-55.8,120.4c13.4,69.1,4.5,140.5,60.2,202.9
	c37.9,42.4-11.2,122.7-71.4,116c-66.9-6.7-133.8-29-156.1-104.8c-35.7-127.1-98.1-252-60.2-390.3
	C1173.6,1317.4,1164.7,1304,1151.3,1268.3z M357.4,432.1c2.2-113.7-35.7-173.9-109.3-187.3c-66.9-13.4-133.8,33.5-158.3,118.2
	c-13.4,44.6-22.3,93.7-15.6,138.3C107.7,775.5,377.5,998.5,654,985.1c22.3,0,53.5,17.8,69.1,35.7c51.3,55.8,91.4,124.9,147.2,176.2
	c35.7,33.5,51.3,62.4,49.1,113.7c-6.7,113.7-11.2,227.5-6.7,341.2c4.5,89.2,102.6,131.6,178.4,78.1
	c-40.1-46.8-109.3-73.6-78.1-160.6c82.5-238.6,71.4-470.5-80.3-684.6c-8.9-13.4-2.2-37.9-2.2-58c17.8,8.9,42.4,15.6,49.1,29
	c49.1,100.4,91.4,202.9,140.5,303.3c13.4,26.8,35.7,64.7,55.8,64.7c24.5,0,55.8-26.8,73.6-51.3c44.6-60.2,82.5-124.9,127.1-185.1
	c8.9-11.2,31.2-15.6,46.8-22.3c-2.2,17.8,2.2,40.1-4.5,55.8c-11.2,24.5-29,46.8-46.8,69.1c-147.2,178.4-189.6,372.4-91.4,588.7
	c29,62.4,58,82.5,124.9,58c-80.3-100.4-93.7-225.2-53.5-327.8c42.4-102.6,142.7-178.4,216.3-267.6c8.9,6.7,17.8,11.2,24.5,15.6
	c-8.9,22.3-13.4,51.3-29,66.9c-42.4,46.8-51.3,100.4-24.5,153.9c51.3,100.4,107,200.7,169.5,292.1c29,42.4,84.7,42.4,133.8-2.2
	c-31.2-22.3-71.4-37.9-82.5-62.4c-42.4-102.6-113.7-198.5-82.5-323.4c17.8-64.7,20.1-129.3-51.3-178.4
	c-20.1-13.4-20.1-78.1-6.7-111.5c6.7-20.1,55.8-24.5,84.7-35.7c4.5,8.9,6.7,17.8,11.2,24.5c-17.8,22.3-35.7,44.6-49.1,62.4
	c31.2,44.6,51.3,89.2,87,116c29,22.3,73.6,33.5,109.3,31.2c24.5-2.2,46.8-37.9,69.1-60.2c-24.5-22.3-49.1-44.6-73.6-69.1
	c-4.5-4.5-6.7-13.4-11.2-24.5c22.3-15.6,42.4-31.2,64.7-46.8c-37.9-87-107-93.7-182.9-91.4c-26.8,2.2-58,15.6-82.5,8.9
	c-120.4-37.9-240.8-73.6-356.8-120.4c-173.9-71.4-347.9-71.4-519.6-2.2c-42.4,17.8-75.8,55.8-118.2,73.6
	c-129.3,51.3-243.1,4.5-339-82.5C203.6,675.2,118.8,557,143.4,396.4c4.5-33.5,44.6-78.1,75.8-84.7c26.8-4.5,64.7,33.5,95.9,58
	C330.7,385.2,337.4,403.1,357.4,432.1z M640.7,1243.8c-6.7,8.9-20.1,29-37.9,44.6c-64.7,62.4-127.1,122.7-194,182.9
	c-55.8,51.3-87,109.3-42.4,182.9c15.6,24.5,35.7,46.8,55.8,71.4c6.7-29,24.5-60.2,20.1-89.2c-11.2-69.1,11.2-104.8,71.4-140.5
	c87-49.1,167.3-109.3,245.3-171.7c35.7-29,66.9-71.4,24.5-122.7c-35.7-42.4-66.9-89.2-102.6-129.3c-11.2-11.2-31.2-15.6-46.8-22.3
	c-6.7,15.6-22.3,33.5-20.1,49.1C616.1,1143.5,627.3,1185.8,640.7,1243.8z"/>
</svg>
